<svg version="1.1" id="Layer_1" xmlns="http://www.w3.org/2000/svg" xmlns:xlink="http://www.w3.org/1999/xlink" x="0px" y="0px" viewBox="131.3 -184.6 66.8 102" style="enable-background:new 131.3 -184.6 66.8 102;" xml:space="preserve">
 <style type="text/css">
  .st0{fill:#FFFFFE;}
 </style>
 <title>
  FS_Brand_Logo2
 </title>
 <desc>
  Created with Sketch.
 </desc>
 <g id="Page-1">
  <g id="FS_Brand_Logo2">
   <path id="Fill-37" class="st0" d="M198.1-124.8c-1.8,0.7-2.9,2-2.5,4.3C197.7-121.2,198.3-122.9,198.1-124.8">
   </path>
   <path id="Fill-38" class="st0" d="M190.8-123.5c0.3,1.9,1.4,3.3,3.7,3.3C194.2-122.4,192.8-123.3,190.8-123.5">
   </path>
   <path id="Fill-39" class="st0" d="M194.5-114.3c-0.1-2.2-1.6-3.1-3.6-3.3C191.1-115.7,192.1-114.4,194.5-114.3">
   </path>
   <path id="Fill-40" class="st0" d="M187.9-144.2c-1.9,0.2-3.4,1.1-3.7,3.3C186.5-140.9,187.6-142.3,187.9-144.2">
   </path>
   <path id="Fill-41" class="st0" d="M179.2-145.9c0.3,1.9,1.4,3.3,3.7,3.3C182.6-144.8,181.1-145.7,179.2-145.9">
   </path>
   <path id="Fill-42" class="st0" d="M178.7-152.8c2.3,0,3.3-1.4,3.7-3.3C180.4-156,178.9-155.1,178.7-152.8">
   </path>
   <path id="Fill-43" class="st0" d="M180.5-161.2c-1.8,0.8-2.9,2.1-2.4,4.3C180.2-157.6,180.7-159.3,180.5-161.2">
   </path>
   <path id="Fill-44" class="st0" d="M174.1-159.6c0.1,1.9,0.9,3.4,3.1,3.8C177.3-158,176-159.1,174.1-159.6">
   </path>
   <path id="Fill-45" class="st0" d="M173.2-165c2.3,0,3.3-1.4,3.6-3.3C175-168.2,173.5-167.3,173.2-165">
   </path>
   <path id="Fill-46" class="st0" d="M175.1-172.9c-1.7,0.9-2.6,2.4-1.9,4.5C175.2-169.3,175.6-171,175.1-172.9">
   </path>
   <path id="Fill-47" class="st0" d="M172.6-166.8c0.1-2.3-1.2-3.4-3.1-3.8C169.5-168.6,170.4-167.1,172.6-166.8">
   </path>
   <path id="Fill-48" class="st0" d="M171.4-163.5c-0.2-2.2-1.7-3.1-3.6-3.3C168.1-164.9,169.1-163.5,171.4-163.5">
   </path>
   <path id="Fill-49" class="st0" d="M165.3-159.1c0.7-0.4,7.6-4.5,7.6-4.5c0,0,0,0,0-0.1l-0.3-2.5h-0.1c0,0,0.1,1,0.1,1.5
			c0,0.5-0.1,0.6-0.5,0.9l-7.8,4c0,0.6,0,1.2,0,1.8C164.6-158.3,164.8-158.7,165.3-159.1">
   </path>
   <path id="Fill-50" class="st0" d="M163.6-181.2c-0.2-2.2-1.7-3.1-3.6-3.3C160.3-182.6,161.4-181.2,163.6-181.2">
   </path>
   <path id="Fill-51" class="st0" d="M163.6-177.5c-0.2-2.2-1.7-3.1-3.6-3.3C160.3-178.9,161.3-177.5,163.6-177.5">
   </path>
   <path id="Fill-52" class="st0" d="M163.5-173.8c-0.2-2.2-1.7-3.1-3.6-3.3C160.2-175.2,161.3-173.9,163.5-173.8">
   </path>
   <path id="Fill-53" class="st0" d="M163.5-170.2c-0.2-2.2-1.7-3.1-3.6-3.3C160.2-171.6,161.2-170.2,163.5-170.2">
   </path>
   <path id="Fill-54" class="st0" d="M163.4-166.5c-0.2-2.2-1.7-3.1-3.6-3.3C160.1-167.9,161.1-166.5,163.4-166.5">
   </path>
   <path id="Fill-55" class="st0" d="M163.3-162.8c-0.2-2.2-1.7-3.1-3.6-3.3C160.1-164.2,161.1-162.9,163.3-162.8">
   </path>
   <path id="Fill-56" class="st0" d="M158.5-171.2c-1.8,0.6-3.1,1.8-2.8,4.1C157.9-167.7,158.6-169.3,158.5-171.2">
   </path>
   <path id="Fill-57" class="st0" d="M155.7-164.4c2.3,0,3.3-1.4,3.6-3.3C157.5-167.6,156-166.7,155.7-164.4">
   </path>
   <path id="Fill-58" class="st0" d="M154.9-166.7c0.3-2.2-0.9-3.5-2.7-4.1C152-168.9,152.7-167.3,154.9-166.7">
   </path>
   <path id="Fill-59" class="st0" d="M154.4-164.2c-0.2-2.2-1.7-3.2-3.6-3.3C151.1-165.6,152.1-164.2,154.4-164.2">
   </path>
   <path id="Fill-60" class="st0" d="M159.8-153.9c-1.9,0.2-3.4,1.1-3.7,3.3C158.4-150.6,159.4-152,159.8-153.9">
   </path>
   <path id="Fill-61" class="st0" d="M153.4-151.9c2.3,0,3.3-1.4,3.7-3.3C155.2-155.1,153.7-154.2,153.4-151.9">
   </path>
   <path id="Fill-62" class="st0" d="M162.4-152.5c-1.9,0.2-3.4,1.1-3.7,3.3C161.1-149.2,162.1-150.6,162.4-152.5">
   </path>
   <path id="Fill-63" class="st0" d="M157.7-156.3c2.3,0,3.3-1.4,3.6-3.3C159.4-159.4,157.9-158.5,157.7-156.3">
   </path>
   <path id="Fill-64" class="st0" d="M155.1-157.8c2.3,0,3.3-1.4,3.6-3.3C156.8-160.9,155.3-160,155.1-157.8">
   </path>
   <path id="Fill-65" class="st0" d="M152.5-159.3c2.3,0,3.3-1.4,3.6-3.3C154.2-162.4,152.7-161.5,152.5-159.3">
   </path>
   <path id="Fill-66" class="st0" d="M154.4-156.7c-1.9,0.2-3.4,1.1-3.7,3.3C153-153.4,154-154.8,154.4-156.7">
   </path>
   <path id="Fill-67" class="st0" d="M150.1-156.9c0.3-2.3-0.9-3.5-2.8-4.1C147.2-159.1,147.9-157.5,150.1-156.9">
   </path>
   <path id="Fill-68" class="st0" d="M149.4-153.5c-0.2-2.3-1.7-3.2-3.7-3.3C146.1-154.9,147.1-153.5,149.4-153.5">
   </path>
   <path id="Fill-69" class="st0" d="M151.3-142c-1.9,0.2-3.4,1.1-3.6,3.3C149.9-138.7,150.9-140.1,151.3-142">
   </path>
   <path id="Fill-70" class="st0" d="M145-140.2c2.3,0,3.3-1.4,3.7-3.3C146.8-143.3,145.3-142.4,145-140.2">
   </path>
   <path id="Fill-71" class="st0" d="M154-140.6c-1.9,0.2-3.4,1.1-3.7,3.3C152.6-137.3,153.6-138.7,154-140.6">
   </path>
   <path id="Fill-72" class="st0" d="M156.6-139.3c-1.9,0.2-3.4,1.1-3.7,3.3C155.3-136,156.3-137.3,156.6-139.3">
   </path>
   <path id="Fill-73" class="st0" d="M159.3-137.9c-1.9,0.2-3.4,1.1-3.7,3.3C157.9-134.6,159-136,159.3-137.9">
   </path>
   <path id="Fill-74" class="st0" d="M162-136.5c-1.9,0.2-3.4,1.1-3.7,3.3C160.6-133.2,161.7-134.6,162-136.5">
   </path>
   <path id="Fill-75" class="st0" d="M158.2-142c2.3,0,3.3-1.4,3.7-3.3C159.9-145.1,158.4-144.2,158.2-142">
   </path>
   <path id="Fill-76" class="st0" d="M155.6-143.5c2.3,0,3.3-1.4,3.7-3.3C157.3-146.6,155.8-145.7,155.6-143.5">
   </path>
   <path id="Fill-77" class="st0" d="M153-145c2.3,0,3.3-1.4,3.7-3.3C154.7-148.1,153.3-147.2,153-145">
   </path>
   <path id="Fill-78" class="st0" d="M150.4-146.5c2.3,0,3.3-1.4,3.7-3.3C152.2-149.7,150.7-148.8,150.4-146.5">
   </path>
   <path id="Fill-79" class="st0" d="M147.9-148c2.3,0,3.3-1.4,3.7-3.3C149.6-151.2,148.1-150.3,147.9-148">
   </path>
   <path id="Fill-80" class="st0" d="M148.6-146.9c-1.9,0.2-3.4,1.1-3.7,3.3C147.2-143.6,148.3-145,148.6-146.9">
   </path>
   <path id="Fill-81" class="st0" d="M144.5-145.4c0.6-2.2-0.5-3.6-2.3-4.4C141.9-147.9,142.4-146.3,144.5-145.4">
   </path>
   <path id="Fill-82" class="st0" d="M143.9-142.5c-0.2-2.3-1.7-3.2-3.7-3.3C140.6-143.9,141.6-142.6,143.9-142.5">
   </path>
   <path id="Fill-83" class="st0" d="M143.4-139.2c-0.2-2.3-1.7-3.2-3.7-3.3C140.1-140.6,141.1-139.2,143.4-139.2">
   </path>
   <path id="Fill-84" class="st0" d="M149.7-129.9c2.3,0,3.3-1.4,3.7-3.3C151.4-133.1,150-132.2,149.7-129.9">
   </path>
   <path id="Fill-85" class="st0" d="M149.7-124.7c2.3,0,3.3-1.4,3.7-3.3C151.4-127.9,150-127,149.7-124.7">
   </path>
   <path id="Fill-86" class="st0" d="M147.2-131.4c2.3,0,3.3-1.4,3.7-3.3C148.9-134.6,147.4-133.7,147.2-131.4">
   </path>
   <path id="Fill-87" class="st0" d="M144.6-132.9c2.3,0,3.3-1.4,3.7-3.3C146.3-136.1,144.9-135.2,144.6-132.9">
   </path>
   <path id="Fill-88" class="st0" d="M142-134.4c2.3,0,3.3-1.4,3.7-3.3C143.8-137.6,142.3-136.7,142-134.4">
   </path>
   <path id="Fill-89" class="st0" d="M195-120.2c0,0,0.3,3.7,0.2,5.2c-0.1,1.7-0.3,2.3-1.6,3.1l-28,14.4v0c0-2.7-0.1-5.9-0.2-9.3
			l0-0.9c0-1.9,0.5-2.9,2.7-4.3c1.9-1.2,22.6-13.3,22.6-13.3c0,0,0.1-0.1,0.1-0.2l-1-7.3h-0.3c0,0,0.3,3.1,0.2,4.3
			c-0.1,1.4-0.3,1.9-1.3,2.6L165.3-114c-0.1-3.5-0.1-7.3-0.2-11.1l0-1c0-1.2,0.5-1.9,2-2.8c1.4-0.9,16.9-10,16.9-10
			c0,0,0.1-0.1,0.1-0.2l-0.7-5.5H183c0,0,0.2,2.3,0.2,3.2c-0.1,1.1-0.2,1.4-1,1.9l-17.2,8.9c-0.1-4.3-0.2-8.6-0.2-12.9v0
			c0.1-0.6,0.5-1.4,1.4-2c1-0.7,12.1-7.1,12.1-7.1c0,0,0.1,0,0.1-0.1l-0.5-3.9h-0.2c0,0,0.2,1.7,0.1,2.3c-0.1,0.8-0.1,1-0.7,1.4
			l-12.3,6.4v0c-0.1-3.9-0.1-7.8-0.2-11.4c0-0.6,0-1.2,0-1.8c-0.3-14.2-0.4-24.7-0.4-24.7c0-0.1,0-0.1-0.1-0.1
			c-0.1,0-0.1,0.1-0.1,0.1c0,0-0.2,10.5-0.4,24.7c0,0.3,0,0.6,0,0.9c0-0.3,0-0.6,0-0.9l-7.7-4c-0.4-0.2-0.4-0.4-0.5-0.9
			c0-0.4,0.1-1.5,0.1-1.5h-0.1l-0.3,2.5c0,0.1,0,0.1,0,0.1c0,0,7,4.1,7.6,4.5c0.5,0.3,0.7,0.6,0.8,1v0l0,0
			c-0.1,3.7-0.1,7.5-0.2,11.5l-12.3-6.3c-0.6-0.4-0.7-0.6-0.7-1.4c0-0.7,0.1-2.3,0.1-2.3H150l-0.5,3.9c0,0.1,0,0.1,0.1,0.1
			c0,0,11.1,6.5,12.1,7.1c0.9,0.5,1.2,1.3,1.4,1.8v0c-0.1,4.3-0.2,8.7-0.2,13l-17.2-8.9c-0.8-0.5-0.9-0.9-1-1.9
			c-0.1-0.9,0.1-3.2,0.1-3.2h-0.2l-0.7,5.5c0,0.1,0.1,0.2,0.1,0.2c0,0,15.5,9,16.9,10c1.5,1,1.9,1.7,2,3l0,1.1v0
			c-0.1,3.8-0.1,7.4-0.2,10.9l-23.1-11.9c-1.1-0.7-1.3-1.2-1.3-2.6c-0.1-1.2,0.2-4.3,0.2-4.3H138l-1,7.3c0,0.2,0.1,0.2,0.1,0.2
			c0,0,20.7,12.1,22.6,13.3c2.2,1.4,2.7,2.4,2.7,4.3v0c-0.1,3.8-0.1,7.2-0.2,10.2l-28-14.4c-1.3-0.8-1.5-1.4-1.6-3.1
			c-0.1-1.5,0.2-5.2,0.2-5.2h-0.4l-1.2,8.9c0,0.2,0.1,0.3,0.1,0.3c0,0,25.1,14.7,27.4,16.1c2.7,1.7,3.3,1.8,3.3,5
			c0,0.1-0.1,3.8-0.1,3.9c0,2.8-2.2,2.8-2.2,2.8l0,0.5h8l0-0.5c0,0-2.2-0.1-2.2-2.8c0-0.1,0-3.7,0-3.9c0-3.2,0.5-3.3,3.3-5
			c2.3-1.5,27.4-16.1,27.4-16.1c0.1,0,0.1-0.1,0.1-0.3l-1.2-8.9H195">
   </path>
   <path id="Fill-90" class="st0" d="M155-126.8c2.3,0,3.3-1.4,3.7-3.3C156.7-129.9,155.2-129,155-126.8">
   </path>
   <path id="Fill-91" class="st0" d="M161.2-128.4c-1.9,0.2-3.4,1.1-3.7,3.3C159.8-125.1,160.8-126.5,161.2-128.4">
   </path>
   <path id="Fill-92" class="st0" d="M174.8-136c1.8-1.4,1.8-3.1,0.9-4.9C174.3-139.5,173.7-137.9,174.8-136">
   </path>
   <path id="Fill-93" class="st0" d="M171.2-138.4c-1.4,1.3-2,2.9-0.9,4.9C172.1-135,172.1-136.7,171.2-138.4">
   </path>
   <path id="Fill-94" class="st0" d="M166.3-145.1c0.3,1.9,1.4,3.3,3.7,3.3C169.7-144.1,168.3-145,166.3-145.1">
   </path>
   <path id="Fill-95" class="st0" d="M179.4-130.2c-0.3-2.3-1.7-3.2-3.6-3.3C176.1-131.6,177.1-130.2,179.4-130.2">
   </path>
   <path id="Fill-96" class="st0" d="M174.8-127.7c-0.3-2.3-1.7-3.2-3.6-3.3C171.5-129.2,172.5-127.8,174.8-127.7">
   </path>
   <path id="Fill-97" class="st0" d="M187.6-109.4c-0.2-2.3-1.7-3.2-3.7-3.3C184.3-110.9,185.3-109.5,187.6-109.4">
   </path>
   <path id="Fill-98" class="st0" d="M182.4-107c-0.2-2.3-1.7-3.2-3.7-3.3C179.1-108.4,180.1-107,182.4-107">
   </path>
   <path id="Fill-99" class="st0" d="M176.3-116c0.3,1.9,1.4,3.3,3.7,3.3C179.7-114.9,178.2-115.8,176.3-116">
   </path>
   <path id="Fill-100" class="st0" d="M172.8-102.1c-0.2-2.3-1.7-3.2-3.7-3.3C169.5-103.6,170.6-102.2,172.8-102.1">
   </path>
   <path id="Fill-101" class="st0" d="M193-107.8c-0.4,2.2,0.9,3.4,2.9,4C196.1-105.7,195.4-107.3,193-107.8">
   </path>
   <path id="Fill-102" class="st0" d="M188-104.2c0.1,2.3,1.6,3.2,3.7,3.3C191.4-102.7,190.4-104.1,188-104.2">
   </path>
   <path id="Fill-103" class="st0" d="M180.3-96.7c2.1-0.9,2.6-2.6,2.2-4.5C180.8-100.3,179.7-98.9,180.3-96.7">
   </path>
   <path id="Fill-104" class="st0" d="M189.3-131c-0.2-2.3-1.7-3.2-3.7-3.3C186-132.5,187-131.1,189.3-131">
   </path>
   <path id="Fill-105" class="st0" d="M189.1-127.7c-0.2-2.3-1.7-3.2-3.7-3.3C185.8-129.1,186.9-127.7,189.1-127.7">
   </path>
   <path id="Fill-106" class="st0" d="M191.1-125.5c2.3,0,3.3-1.4,3.7-3.3C192.9-128.6,191.4-127.7,191.1-125.5">
   </path>
   <path id="Fill-107" class="st0" d="M194.2-134.4c-1.9,0.2-3.4,1.1-3.7,3.3C192.8-131.1,193.9-132.5,194.2-134.4">
   </path>
  </g>
 </g>
</svg>